<mxfile host="app.diagrams.net" modified="2023-10-16T03:52:43.100Z" agent="Mozilla/5.0 (Windows NT 10.0; Win64; x64) AppleWebKit/537.36 (KHTML, like Gecko) Chrome/117.0.0.0 Safari/537.36" etag="bylGbzTITCPs40EGESlB" version="22.0.4" type="device">
  <diagram name="Page-1" id="kvtvLhoTe27yPl5cfEf_">
    <mxGraphModel dx="1750" dy="903" grid="1" gridSize="10" guides="1" tooltips="1" connect="1" arrows="1" fold="1" page="1" pageScale="1" pageWidth="2336" pageHeight="1654" math="0" shadow="0">
      <root>
        <mxCell id="0" />
        <mxCell id="1" parent="0" />
        <mxCell id="rjC4d0lEGQLeOvyT_RZf-2" value="Environment" style="text;html=1;strokeColor=none;fillColor=none;align=center;verticalAlign=middle;whiteSpace=wrap;rounded=0;fontSize=18;" vertex="1" parent="1">
          <mxGeometry x="265" y="20" width="210" height="50" as="geometry" />
        </mxCell>
        <mxCell id="rjC4d0lEGQLeOvyT_RZf-6" value="" style="rounded=0;whiteSpace=wrap;html=1;" vertex="1" parent="1">
          <mxGeometry x="275" y="128.75" width="190" height="147.5" as="geometry" />
        </mxCell>
        <mxCell id="rjC4d0lEGQLeOvyT_RZf-8" value="" style="rounded=0;whiteSpace=wrap;html=1;" vertex="1" parent="1">
          <mxGeometry x="510" y="130" width="280" height="240" as="geometry" />
        </mxCell>
        <mxCell id="rjC4d0lEGQLeOvyT_RZf-9" value="" style="rounded=0;whiteSpace=wrap;html=1;" vertex="1" parent="1">
          <mxGeometry x="60" y="130" width="160" height="140" as="geometry" />
        </mxCell>
        <mxCell id="rjC4d0lEGQLeOvyT_RZf-10" value="" style="endArrow=classic;html=1;rounded=0;entryX=1;entryY=0.5;entryDx=0;entryDy=0;" edge="1" parent="1" target="rjC4d0lEGQLeOvyT_RZf-9">
          <mxGeometry width="50" height="50" relative="1" as="geometry">
            <mxPoint x="280" y="200" as="sourcePoint" />
            <mxPoint x="330" y="150" as="targetPoint" />
          </mxGeometry>
        </mxCell>
        <mxCell id="rjC4d0lEGQLeOvyT_RZf-11" value="" style="endArrow=classic;html=1;rounded=0;entryX=1;entryY=0.5;entryDx=0;entryDy=0;" edge="1" parent="1" target="rjC4d0lEGQLeOvyT_RZf-6">
          <mxGeometry width="50" height="50" relative="1" as="geometry">
            <mxPoint x="510" y="200" as="sourcePoint" />
            <mxPoint x="560" y="150" as="targetPoint" />
          </mxGeometry>
        </mxCell>
        <mxCell id="rjC4d0lEGQLeOvyT_RZf-12" value="&lt;font style=&quot;font-size: 16px;&quot;&gt;State representation module&lt;/font&gt;" style="whiteSpace=wrap;html=1;aspect=fixed;" vertex="1" parent="1">
          <mxGeometry x="849" y="130" width="150" height="150" as="geometry" />
        </mxCell>
        <mxCell id="rjC4d0lEGQLeOvyT_RZf-17" value="&lt;h1&gt;OpenAI Gym Env&lt;/h1&gt;" style="text;html=1;strokeColor=none;fillColor=none;spacing=5;spacingTop=-20;whiteSpace=wrap;overflow=hidden;rounded=0;" vertex="1" parent="1">
          <mxGeometry x="510" y="128.75" width="280" height="120" as="geometry" />
        </mxCell>
        <mxCell id="rjC4d0lEGQLeOvyT_RZf-19" value="&lt;h1&gt;Visual Rendering&lt;/h1&gt;&lt;div&gt;&lt;font style=&quot;font-size: 15px;&quot;&gt;&lt;i&gt;Pygame&lt;/i&gt;&lt;/font&gt;&lt;/div&gt;" style="text;html=1;strokeColor=none;fillColor=none;spacing=5;spacingTop=-20;whiteSpace=wrap;overflow=hidden;rounded=0;" vertex="1" parent="1">
          <mxGeometry x="275" y="142.5" width="190" height="120" as="geometry" />
        </mxCell>
        <mxCell id="rjC4d0lEGQLeOvyT_RZf-20" value="&lt;h1&gt;User Interface&lt;/h1&gt;" style="text;html=1;strokeColor=none;fillColor=none;spacing=5;spacingTop=-20;whiteSpace=wrap;overflow=hidden;rounded=0;" vertex="1" parent="1">
          <mxGeometry x="80" y="145" width="130" height="120" as="geometry" />
        </mxCell>
        <mxCell id="rjC4d0lEGQLeOvyT_RZf-23" value="" style="line;strokeWidth=2;html=1;" vertex="1" parent="1">
          <mxGeometry x="510" y="180" width="280" height="10" as="geometry" />
        </mxCell>
        <mxCell id="rjC4d0lEGQLeOvyT_RZf-24" value="" style="line;strokeWidth=2;html=1;" vertex="1" parent="1">
          <mxGeometry x="510" y="264" width="280" height="10" as="geometry" />
        </mxCell>
        <mxCell id="rjC4d0lEGQLeOvyT_RZf-25" value="State Space&lt;br style=&quot;font-size: 14px;&quot;&gt;Action Space&lt;br style=&quot;font-size: 14px;&quot;&gt;Reward Function" style="text;html=1;strokeColor=none;fillColor=none;align=center;verticalAlign=middle;whiteSpace=wrap;rounded=0;fontSize=14;" vertex="1" parent="1">
          <mxGeometry x="530" y="182" width="220" height="80" as="geometry" />
        </mxCell>
        <mxCell id="rjC4d0lEGQLeOvyT_RZf-26" value="def __init__():&lt;br style=&quot;font-size: 14px;&quot;&gt;def render():&lt;br style=&quot;font-size: 14px;&quot;&gt;def step():&lt;br style=&quot;font-size: 14px;&quot;&gt;def reset():" style="text;html=1;strokeColor=none;fillColor=none;align=center;verticalAlign=middle;whiteSpace=wrap;rounded=0;fontSize=14;" vertex="1" parent="1">
          <mxGeometry x="527" y="280" width="220" height="80" as="geometry" />
        </mxCell>
        <mxCell id="rjC4d0lEGQLeOvyT_RZf-27" value="&lt;font style=&quot;font-size: 15px;&quot;&gt;Offline training dataset Module&lt;/font&gt;" style="rounded=0;whiteSpace=wrap;html=1;" vertex="1" parent="1">
          <mxGeometry x="847" y="380" width="146" height="140" as="geometry" />
        </mxCell>
        <mxCell id="rjC4d0lEGQLeOvyT_RZf-28" value="" style="endArrow=classic;html=1;rounded=0;entryX=0.5;entryY=1;entryDx=0;entryDy=0;" edge="1" parent="1" target="rjC4d0lEGQLeOvyT_RZf-12">
          <mxGeometry width="50" height="50" relative="1" as="geometry">
            <mxPoint x="925" y="380" as="sourcePoint" />
            <mxPoint x="920.5999999999999" y="284.3499999999999" as="targetPoint" />
          </mxGeometry>
        </mxCell>
        <mxCell id="rjC4d0lEGQLeOvyT_RZf-29" value="" style="endArrow=classic;html=1;rounded=0;" edge="1" parent="1">
          <mxGeometry width="50" height="50" relative="1" as="geometry">
            <mxPoint x="790" y="240" as="sourcePoint" />
            <mxPoint x="850" y="240" as="targetPoint" />
          </mxGeometry>
        </mxCell>
      </root>
    </mxGraphModel>
  </diagram>
</mxfile>
